<?xml version="1.0" encoding="UTF-8"?>
<svg version="1.1" xmlns="http://www.w3.org/2000/svg" width="59" height="58">
<path d="M0 0 C4.94613378 4.88618064 6.71372102 8.71270302 7 15.6875 C6.82096763 21.97698498 5.64374149 25.66875851 1.1015625 30.2109375 C-3.77548978 34.49383113 -7.0982911 36.01794319 -13.5625 35.875 C-14.61695313 35.85695312 -15.67140625 35.83890625 -16.7578125 35.8203125 C-18.08425781 35.78550781 -18.08425781 35.78550781 -19.4375 35.75 C-20.0975 35.75 -20.7575 35.75 -21.4375 35.75 C-22.241875 36.554375 -23.04625 37.35875 -23.875 38.1875 C-27.50824939 41.82074939 -30.29206774 41.94400854 -35.25 42.0625 C-40.50540476 42.01178439 -43.46364201 41.42581864 -47.4375 37.75 C-51.95632611 32.74265215 -52.79546982 28.89903686 -52.71875 22.3203125 C-52.1685157 17.29178232 -49.715756 14.2279835 -46.4375 10.4375 C-42.43487646 8.18602426 -38.6170596 7.88485175 -34.08203125 7.4375 C-31.32375281 7.04373629 -31.32375281 7.04373629 -30.26953125 4.8828125 C-29.99496094 4.17898437 -29.72039063 3.47515625 -29.4375 2.75 C-25.87077265 -1.27943793 -21.94628238 -4.13970633 -16.60546875 -5.12109375 C-10.12342872 -5.50651235 -5.02696163 -4.15992605 0 0 Z M-47.8125 17.5 C-49.80367451 21.48234901 -50.30187141 24.38448785 -49.4375 28.75 C-47.20198472 33.05543683 -44.6795995 36.35229159 -40.4375 38.75 C-35.40755375 39.57568632 -31.59309296 39.31729109 -27 37.0625 C-24.41686972 34.73138243 -22.86213681 32.91585958 -21.4375 29.75 C-21.4375 28.43 -21.4375 27.11 -21.4375 25.75 C-24.18828884 24.83307039 -25.79698913 24.64113917 -28.625 24.6875 C-29.883125 24.708125 -31.14125 24.72875 -32.4375 24.75 C-32.4375 24.09 -32.4375 23.43 -32.4375 22.75 C-31.880625 22.481875 -31.32375 22.21375 -30.75 21.9375 C-28.24037477 20.64877353 -25.84415764 19.22073522 -23.4375 17.75 C-24.4179588 15.16515408 -25.37672143 13.80156969 -27.5 12 C-35.7689255 8.4813083 -42.05588142 10.83444164 -47.8125 17.5 Z M-24.4375 10.75 C-23.4475 11.74 -22.4575 12.73 -21.4375 13.75 C-21.7675 12.76 -22.0975 11.77 -22.4375 10.75 C-23.0975 10.75 -23.7575 10.75 -24.4375 10.75 Z M-20.4375 14.75 C-19.4375 16.75 -19.4375 16.75 -19.4375 16.75 Z M-19.4375 16.75 C-18.4375 18.75 -18.4375 18.75 -18.4375 18.75 Z M-23.4375 17.75 C-22.4375 19.75 -22.4375 19.75 -22.4375 19.75 Z M-18.4375 18.75 C-17.4375 22.75 -17.4375 22.75 -17.4375 22.75 Z M-22.4375 19.75 C-21.4375 23.75 -21.4375 23.75 -21.4375 23.75 Z M-17.4375 22.75 C-16.4375 26.75 -16.4375 26.75 -16.4375 26.75 Z M-18.4375 26.75 C-17.4375 30.75 -17.4375 30.75 -17.4375 30.75 Z M-19.4375 30.75 C-18.4375 32.75 -18.4375 32.75 -18.4375 32.75 Z " fill="#FC5D35" transform="translate(52.4375,16.25)"/>
<path d="M0 0 C7.14318976 -0.48428405 7.14318976 -0.48428405 10.875 1.625 C13.28170139 4.31484273 14.13084629 6.52338517 15 10 C14 11 14 11 10.25 11.3125 C7.12144181 11.25633199 5.929612 10.96255958 3.0625 9.4375 C0.43643125 6.33396421 0.23071677 3.9990906 0 0 Z " fill="#FC5D35" transform="translate(24,0)"/>
<path d="M0 0 C3.79951706 1.49266742 5.8354862 3.55281135 8 7 C8.125 9.5 8.125 9.5 7 12 C5.1189426 13.99010421 3.25697456 15.38787531 1 17 C0.34 17 -0.32 17 -1 17 C-3.47823665 13.28264502 -3.5897167 9.31604251 -3 5 C-1.5 2 -1.5 2 0 0 Z " fill="#FC5D35" transform="translate(7,32)"/>
<path d="M0 0 C4.43379675 2.21689838 6.46636932 4.77728219 9 9 C4.96333114 11.69111257 1.73943626 11.55611599 -3 11 C-6.0625 9.625 -6.0625 9.625 -8 8 C-8 7.34 -8 6.68 -8 6 C-6.25 4.4921875 -6.25 4.4921875 -4 2.875 C-3.2575 2.33617187 -2.515 1.79734375 -1.75 1.2421875 C-1.1725 0.83226562 -0.595 0.42234375 0 0 Z " fill="#FC5D35" transform="translate(16,43)"/>
<path d="M0 0 C5.75 1.875 5.75 1.875 8 3 C8 5 8 5 6.5390625 6.5078125 C5.90742188 7.04148437 5.27578125 7.57515625 4.625 8.125 C3.99851562 8.66382813 3.37203125 9.20265625 2.7265625 9.7578125 C1 11 1 11 -1 11 C-0.67 7.37 -0.34 3.74 0 0 Z " fill="#FC5D35" transform="translate(19,28)"/>
<path d="M0 0 C3.63 0.33 7.26 0.66 11 1 C10 6 10 6 9 8 C4.75153925 7.52794881 2.73180712 5.11122478 0 2 C0 1.34 0 0.68 0 0 Z " fill="#FC5D35" transform="translate(19,42)"/>
<path d="M0 0 C-0.33 3.63 -0.66 7.26 -1 11 C-4.19199167 8.58443874 -6.74716687 6.31996462 -9 3 C-5.59353476 -0.0279691 -4.9819505 0 0 0 Z " fill="#FC5D35" transform="translate(18,28)"/>
<path d="M0 0 C-1.07401108 2.91517292 -1.77810176 4.77810176 -4 7 C-7.125 7.125 -7.125 7.125 -10 7 C-9.8125 4.6875 -9.8125 4.6875 -9 2 C-5.81738059 -0.58050222 -3.89040693 -1.5849806 0 0 Z " fill="#FC5D35" transform="translate(50,4)"/>
</svg>
